HIERARCHY
ROOT Hips
{
	OFFSET -0.001795 -0.223333 0.028219
	CHANNELS 6 Xposition Yposition Zposition Zrotation Yrotation Xrotation 
	JOINT LeftUpLeg
	{
		OFFSET 0.069520 -0.091406 -0.006815
		CHANNELS 3 Zrotation Yrotation Xrotation
		JOINT LeftLeg
		{
			OFFSET 0.034277 -0.375199 -0.004496
			CHANNELS 3 Zrotation Yrotation Xrotation
			JOINT LeftFoot
			{
				OFFSET -0.013596 -0.397961 -0.043693
				CHANNELS 3 Zrotation Yrotation Xrotation
				JOINT LeftToe
				{
					OFFSET 0.026358 -0.055791 0.119288
					CHANNELS 3 Zrotation Yrotation Xrotation
					End Site
					{
						OFFSET 0.000000 0.000000 0.000000
					}
				}
			}
		}
	}
	JOINT RightUpLeg
	{
		OFFSET -0.067670 -0.090522 -0.004320
		CHANNELS 3 Zrotation Yrotation Xrotation
		JOINT RightLeg
		{
			OFFSET -0.038290 -0.382569 -0.008850
			CHANNELS 3 Zrotation Yrotation Xrotation
			JOINT RightFoot
			{
				OFFSET 0.015774 -0.398415 -0.042312
				CHANNELS 3 Zrotation Yrotation Xrotation
				JOINT RightToe
				{
					OFFSET -0.025372 -0.048144 0.123348
					CHANNELS 3 Zrotation Yrotation Xrotation
					End Site
					{
						OFFSET 0.000000 0.000000 0.000000
					}
				}
			}
		}
	}
	JOINT Spine
	{
		OFFSET -0.002533 0.108963 -0.026696
		CHANNELS 3 Zrotation Yrotation Xrotation
		JOINT Spine1
		{
			OFFSET 0.005487 0.135180 0.001092
			CHANNELS 3 Zrotation Yrotation Xrotation
			JOINT Spine2
			{
				OFFSET 0.001457 0.052922 0.025425
				CHANNELS 3 Zrotation Yrotation Xrotation
				JOINT Neck
				{
					OFFSET -0.002778 0.213870 -0.042857
					CHANNELS 3 Zrotation Yrotation Xrotation
					JOINT Head
					{
						OFFSET 0.005152 0.064970 0.051349
						CHANNELS 3 Zrotation Yrotation Xrotation
						End Site
						{
							OFFSET 0.000000 0.000000 0.000000
						}
					}
				}
				JOINT LeftShoulder
				{
					OFFSET 0.078845 0.121749 -0.034090
					CHANNELS 3 Zrotation Yrotation Xrotation
					JOINT LeftArm
					{
						OFFSET 0.090977 0.030469 -0.008868
						CHANNELS 3 Zrotation Yrotation Xrotation
						JOINT LeftForeArm
						{
							OFFSET 0.259612 -0.012772 -0.027456
							CHANNELS 3 Zrotation Yrotation Xrotation
							JOINT LeftHand
							{
								OFFSET 0.249234 0.008986 -0.001171
								CHANNELS 3 Zrotation Yrotation Xrotation
								End Site
								{
									OFFSET 0.000000 0.000000 0.000000
								}
							}
						}
					}
				}
				JOINT RightShoulder
				{
					OFFSET -0.081759 0.118833 -0.038615
					CHANNELS 3 Zrotation Yrotation Xrotation
					JOINT RightArm
					{
						OFFSET -0.096012 0.032551 -0.009143
						CHANNELS 3 Zrotation Yrotation Xrotation
						JOINT RightForeArm
						{
							OFFSET -0.253742 -0.013329 -0.021401
							CHANNELS 3 Zrotation Yrotation Xrotation
							JOINT RightHand
							{
								OFFSET -0.255298 0.007772 -0.005559
								CHANNELS 3 Zrotation Yrotation Xrotation
								End Site
								{
									OFFSET 0.000000 0.000000 0.000000
								}
							}
						}
					}
				}
			}
		}
	}
}
MOTION
Frames: 18
Frame Time: 0.050000
0.000000 0.957253 0.000000 -2.234718 2.981159 1.811684 0.876826 0.220500 3.000833 -2.332974 0.269114 -2.236512 2.900492 8.640051 8.136950 0.000000 0.000000 0.000000 0.075396 0.850730 -8.462432 2.663835 -0.227779 5.472115 -2.354347 -7.978326 7.159758 0.000000 0.000000 0.000000 5.351211 -0.634922 6.166022 -4.678519 1.790240 -23.232686 -2.491367 2.567610 29.223519 11.060476 -3.565756 -29.732963 0.000000 0.000000 0.000000 -22.206065 -6.794613 1.321260 -50.398321 -5.012574 -6.084851 -6.767862 -25.215399 2.571827 0.000000 0.000000 0.000000 30.407392 -5.568913 -3.918542 55.136172 6.967546 -5.310899 5.122397 29.346264 3.149295 0.000000 0.000000 0.000000 
-0.000521 0.956241 0.003949 -2.102968 2.783901 2.855533 1.053587 0.154824 2.278147 -2.657419 0.297447 -2.393604 3.382595 9.106865 6.822271 0.000000 0.000000 0.000000 -0.442472 0.862308 -8.866619 3.050869 -0.289133 5.159105 -2.129384 -7.398056 6.677560 0.000000 0.000000 0.000000 5.758667 -0.575055 5.034295 -5.427332 1.968287 -23.072649 -2.442292 2.768720 29.150519 11.249600 -3.452547 -30.820872 0.000000 0.000000 0.000000 -21.253003 -6.281155 1.087526 -51.168900 -5.396616 -6.037331 -6.693665 -25.662728 2.612516 0.000000 0.000000 0.000000 29.716220 -6.209131 -4.315168 56.999164 6.584723 -5.501571 5.311709 30.875920 3.450223 0.000000 0.000000 0.000000 
-0.001106 0.955851 0.007919 -1.600523 3.221380 3.340178 1.032699 0.113125 1.757938 -3.143105 0.327079 -1.410737 3.197818 8.852661 6.997545 0.000000 0.000000 0.000000 -0.780972 0.876984 -9.261160 2.849452 -0.259693 5.378274 -2.141789 -7.493504 7.090946 0.000000 0.000000 0.000000 5.917547 -0.518362 4.235235 -5.870475 2.089462 -22.806141 -2.373759 2.529235 29.385044 10.361173 -3.022044 -30.527861 0.000000 0.000000 0.000000 -20.645883 -7.063702 1.570431 -51.463155 -5.735509 -5.962326 -7.134525 -25.493641 2.691456 0.000000 0.000000 0.000000 29.558133 -6.080790 -4.191255 56.908522 7.070033 -5.291751 5.665845 29.870292 3.394537 0.000000 0.000000 0.000000 
-0.001975 0.956372 0.012579 -1.415843 3.090832 3.509383 0.660605 0.157386 2.106822 -2.731570 0.290346 -1.271689 3.215743 8.794045 6.697841 0.000000 0.000000 0.000000 -1.250905 0.825525 -8.967628 3.183355 -0.314044 5.029103 -1.661490 -6.539751 7.297084 0.000000 0.000000 0.000000 6.164408 -0.524243 4.122232 -6.020091 2.109854 -23.166577 -2.339509 3.199165 30.111160 10.801402 -3.118160 -30.985419 0.000000 0.000000 0.000000 -21.208849 -7.696217 1.744195 -50.789461 -5.394425 -6.038521 -7.794890 -26.803839 2.969455 0.000000 0.000000 0.000000 30.070006 -5.902944 -3.843054 56.294430 7.684655 -5.153235 6.163618 30.006462 3.591331 0.000000 0.000000 0.000000 
-0.003175 0.956718 0.017338 -1.314952 3.066545 3.601649 0.620428 0.165698 2.186321 -2.525450 0.271634 -1.249183 3.079236 8.682867 7.169422 0.000000 0.000000 0.000000 -1.466473 0.773870 -8.485871 3.259038 -0.327365 4.750587 -1.698169 -6.609817 7.259799 0.000000 0.000000 0.000000 6.054469 -0.547001 4.408549 -5.333341 1.959591 -22.618857 -2.488620 3.422267 29.568525 10.997407 -3.225408 -30.639615 0.000000 0.000000 0.000000 -21.204352 -8.066484 1.859520 -50.655176 -6.028438 -5.680116 -9.741958 -27.674136 3.526466 0.000000 0.000000 0.000000 29.672982 -5.426824 -3.410899 55.941004 8.324264 -4.797887 6.251060 29.645160 3.542109 0.000000 0.000000 0.000000 
-0.004843 0.956892 0.022087 -1.251352 3.123283 3.562957 0.492458 0.177425 2.258889 -2.138432 0.230987 -0.884996 2.827138 8.252337 7.192244 0.000000 0.000000 0.000000 -1.623158 0.706870 -7.775626 3.428036 -0.355571 4.547954 -1.439101 -6.037127 7.195427 0.000000 0.000000 0.000000 6.224098 -0.583071 4.673584 -5.533378 1.997772 -22.947503 -2.346266 3.313181 30.051791 11.058728 -3.244474 -30.922541 0.000000 0.000000 0.000000 -21.181940 -8.654369 2.238333 -50.680756 -6.820173 -5.423253 -11.204285 -28.835447 4.076310 0.000000 0.000000 0.000000 29.192514 -4.656262 -2.856372 55.633901 8.592284 -4.700699 6.502911 29.390738 3.540326 0.000000 0.000000 0.000000 
-0.007035 0.956728 0.026797 -1.132128 3.097365 3.762503 0.517219 0.205374 2.610176 -2.213543 0.247885 -1.558166 2.946681 8.605429 7.723777 0.000000 0.000000 0.000000 -1.690150 0.671624 -7.374979 3.579947 -0.379302 4.293265 -1.545496 -6.253676 7.148761 0.000000 0.000000 0.000000 6.366407 -0.601771 4.731971 -5.317117 1.961425 -22.348416 -2.578130 3.078924 29.728068 11.447522 -3.458011 -31.063229 0.000000 0.000000 0.000000 -21.178534 -9.562827 2.816776 -50.821905 -7.396723 -5.172732 -12.593335 -29.549725 4.564085 0.000000 0.000000 0.000000 28.734325 -4.054616 -2.523429 55.477831 8.983665 -4.449383 6.920693 29.239599 3.583953 0.000000 0.000000 0.000000 
-0.009805 0.956163 0.031484 -1.005036 3.285035 4.205912 0.712914 0.191522 2.571960 -2.082542 0.238734 -1.777815 3.181775 9.030039 7.760129 0.000000 0.000000 0.000000 -1.771340 0.671599 -7.403253 3.759104 -0.408169 4.349234 -1.650186 -6.357705 6.775145 0.000000 0.000000 0.000000 6.486232 -0.621219 4.746444 -5.164022 1.924165 -22.296654 -2.758916 2.350202 29.836418 11.177814 -3.375084 -31.263608 0.000000 0.000000 0.000000 -21.036073 -10.261239 3.414004 -51.239308 -8.118363 -4.958917 -14.324385 -30.472249 5.247610 0.000000 0.000000 0.000000 27.907762 -3.545656 -2.368138 55.502800 9.367538 -4.190321 7.191170 28.829569 3.533593 0.000000 0.000000 0.000000 
-0.013160 0.955828 0.036170 -0.891802 3.482681 4.603098 0.861288 0.199971 2.789826 -1.999334 0.242183 -2.513407 3.353143 9.428861 8.129349 0.000000 0.000000 0.000000 -1.733184 0.682941 -7.516757 4.033670 -0.452206 4.267957 -1.953172 -6.968278 6.682657 0.000000 0.000000 0.000000 6.752042 -0.643168 4.696313 -4.997142 1.892848 -21.981408 -3.152164 1.704383 29.611307 11.208695 -3.467481 -31.218626 0.000000 0.000000 0.000000 -21.000594 -11.066911 4.021388 -52.095872 -8.411396 -4.895015 -14.764860 -30.883663 5.490825 0.000000 0.000000 0.000000 27.323808 -3.119433 -2.257618 55.491415 9.441710 -4.059129 7.270712 29.059700 3.543096 0.000000 0.000000 0.000000 
-0.017171 0.955779 0.040873 -0.746613 3.520315 5.145174 0.957091 0.193212 2.781330 -1.891294 0.239349 -2.882008 3.656617 9.995163 8.334328 0.000000 0.000000 0.000000 -1.500657 0.696682 -7.551336 4.152782 -0.469782 4.155304 -2.205566 -7.415103 6.304975 0.000000 0.000000 0.000000 7.035095 -0.668878 4.638311 -4.974461 1.886165 -21.879020 -3.311420 1.197357 29.612844 11.081488 -3.414069 -31.517040 0.000000 0.000000 0.000000 -21.072058 -11.833592 4.609795 -52.492072 -8.711880 -4.802224 -15.244265 -30.872007 5.661179 0.000000 0.000000 0.000000 26.867818 -2.849725 -2.238285 55.396213 9.630727 -3.904357 7.196841 28.882991 3.460028 0.000000 0.000000 0.000000 
-0.021767 0.955701 0.045855 -0.627048 3.607699 5.483102 1.150470 0.171019 2.643879 -1.763885 0.227204 -2.759659 3.687834 10.051065 8.328769 0.000000 0.000000 0.000000 -1.341460 0.736695 -7.945460 4.371905 -0.504210 4.287167 -2.378868 -7.741561 6.127712 0.000000 0.000000 0.000000 7.330616 -0.730441 4.939004 -4.861390 1.853806 -21.974321 -3.692631 0.729613 29.573472 11.109657 -3.411279 -31.963794 0.000000 0.000000 0.000000 -21.284062 -12.284405 5.007687 -52.790696 -8.691761 -4.844289 -14.911486 -30.752368 5.576743 0.000000 0.000000 0.000000 26.580746 -2.802196 -2.350121 55.134634 9.591978 -3.864961 6.764724 28.786019 3.307196 0.000000 0.000000 0.000000 
-0.026835 0.955292 0.051458 -0.504058 3.726039 5.819887 1.478940 0.147721 2.593134 -2.164152 0.252076 -2.459029 4.041790 10.585926 8.051705 0.000000 0.000000 0.000000 -1.030990 0.752969 -7.981483 4.249896 -0.486545 4.244866 -2.410899 -7.678558 5.608581 0.000000 0.000000 0.000000 7.675352 -0.792567 5.181897 -4.897270 1.861488 -21.931031 -3.980477 0.320392 29.370051 10.956871 -3.335033 -32.138414 0.000000 0.000000 0.000000 -21.262114 -12.757395 5.378174 -53.010084 -8.953413 -4.730696 -14.089343 -30.160567 5.248887 0.000000 0.000000 0.000000 26.488245 -3.029257 -2.636671 54.511794 9.225867 -3.946414 6.364481 28.976483 3.202875 0.000000 0.000000 0.000000 
-0.032150 0.954641 0.058196 -0.388875 3.506598 5.931557 1.783078 0.137423 2.675294 -2.268481 0.256841 -2.139578 4.236686 10.953441 8.279613 0.000000 0.000000 0.000000 -0.746253 0.758715 -7.908210 4.205257 -0.476810 4.461972 -2.307350 -7.344401 5.124584 0.000000 0.000000 0.000000 7.899772 -0.834113 5.381060 -4.976644 1.881231 -21.761264 -4.158127 0.170959 29.286786 10.767141 -3.214209 -32.523817 0.000000 0.000000 0.000000 -21.357408 -12.930788 5.579972 -52.989559 -9.169861 -4.647274 -12.715679 -29.319217 4.735313 0.000000 0.000000 0.000000 26.272604 -2.797629 -2.585229 54.034559 8.986260 -4.001010 5.658870 28.914122 2.989485 0.000000 0.000000 0.000000 
-0.037497 0.953943 0.066086 -0.140687 2.858610 6.140117 2.010877 0.119968 2.564248 -2.387456 0.258409 -1.267146 4.608389 11.483604 7.986243 0.000000 0.000000 0.000000 -0.653729 0.728927 -7.526953 3.974987 -0.431755 4.322765 -2.046388 -6.602604 4.406930 0.000000 0.000000 0.000000 8.171200 -0.893131 5.700497 -5.264698 1.930613 -22.192099 -4.088580 0.610449 29.367793 10.418487 -3.042585 -32.470773 0.000000 0.000000 0.000000 -21.603687 -13.123228 5.716525 -52.919171 -8.989154 -4.732315 -11.032810 -28.754898 4.196884 0.000000 0.000000 0.000000 26.406111 -2.885882 -2.652084 53.171719 8.582420 -4.166145 5.167739 28.983488 2.868620 0.000000 0.000000 0.000000 
-0.042738 0.953168 0.074950 0.039338 2.430313 6.150219 2.264271 0.114013 2.639871 -2.557563 0.263361 -0.208663 4.548821 11.367645 8.026162 0.000000 0.000000 0.000000 -0.354490 0.699858 -7.109523 3.575808 -0.366128 4.393692 -1.736548 -5.740916 3.816114 0.000000 0.000000 0.000000 8.345666 -0.936159 5.973367 -5.427873 1.955373 -22.498670 -4.303262 0.669771 29.696234 10.290960 -3.008582 -32.583133 0.000000 0.000000 0.000000 -21.592931 -12.660965 5.550910 -52.996299 -9.365342 -4.641679 -9.051960 -28.266053 3.638914 0.000000 0.000000 0.000000 26.540068 -2.862345 -2.726180 53.119997 8.463001 -4.235204 4.416378 29.224370 2.707328 0.000000 0.000000 0.000000 
-0.047704 0.952193 0.084519 0.132040 1.560216 6.059087 2.378571 0.059089 1.845156 -2.841162 0.265950 2.969490 4.953318 11.701066 6.364922 0.000000 0.000000 0.000000 0.012083 0.670370 -6.702776 3.055076 -0.276907 4.544968 -1.578109 -4.973332 2.519100 0.000000 0.000000 0.000000 8.435068 -0.985306 6.403778 -5.680986 1.999019 -22.687529 -4.090453 0.783856 29.511383 10.085632 -2.907812 -32.976700 0.000000 0.000000 0.000000 -21.694801 -12.025016 5.339108 -52.888680 -9.401858 -4.650624 -8.037075 -28.323043 3.417412 0.000000 0.000000 0.000000 26.642822 -2.840312 -2.897581 52.695225 8.517398 -4.146804 4.487868 28.785687 2.633815 0.000000 0.000000 0.000000 
-0.052286 0.951686 0.094427 0.236506 1.286479 5.977994 3.096191 -0.103244 -0.235244 -3.984699 0.415648 8.444004 5.511633 12.515380 5.408202 0.000000 0.000000 0.000000 0.497922 0.582769 -5.745846 2.742208 -0.234083 4.068346 -1.695681 -4.721629 1.024791 0.000000 0.000000 0.000000 8.440038 -1.036288 6.866557 -5.713724 2.007318 -22.550790 -4.164654 0.451349 29.217876 9.653054 -2.753066 -33.066714 0.000000 0.000000 0.000000 -21.599824 -11.663892 5.280018 -52.640191 -10.382037 -4.235234 -6.916633 -27.975737 3.112031 0.000000 0.000000 0.000000 26.644814 -2.655637 -2.979602 52.728458 8.468368 -4.097711 4.019603 28.904255 2.495686 0.000000 0.000000 0.000000 
-0.056042 0.950071 0.104097 0.485382 1.426850 5.930175 3.813271 -0.335763 -3.918346 -5.254079 0.716912 16.426076 5.883380 13.060866 4.551954 0.000000 0.000000 0.000000 0.618861 0.508943 -5.022674 2.555395 -0.198859 4.716673 -2.094560 -4.883547 -1.233576 0.000000 0.000000 0.000000 8.276044 -1.144221 7.922459 -5.764102 2.024947 -22.448839 -4.333261 -0.298257 28.712781 9.743634 -2.745805 -33.928950 0.000000 0.000000 0.000000 -21.595844 -11.221102 5.215441 -51.734835 -11.409469 -3.759590 -5.934153 -27.957393 2.885212 0.000000 0.000000 0.000000 26.375553 -2.338416 -3.018639 52.572344 8.777272 -3.835713 3.400955 29.073026 2.304294 0.000000 0.000000 0.000000 
